<?xml version="1.0" standalone="no"?>
<!DOCTYPE svg PUBLIC "-//W3C//DTD SVG 20010904//EN"
 "http://www.w3.org/TR/2001/REC-SVG-20010904/DTD/svg10.dtd">
<svg version="1.0" xmlns="http://www.w3.org/2000/svg"
 width="1080.000000pt" height="1080.000000pt" viewBox="0 0 1080.000000 1080.000000"
 preserveAspectRatio="xMidYMid meet">

<g transform="translate(0.000000,1080.000000) scale(0.100000,-0.100000)"
fill="#000000" stroke="none">
<path d="M5830 9491 c0 -20 -84 -118 -255 -298 -177 -186 -267 -301 -337 -433
-37 -67 -106 -255 -132 -357 -19 -73 -48 -323 -44 -377 l3 -41 -115 -7 c-557
-35 -1226 -148 -1764 -299 -131 -37 -477 -140 -484 -144 -4 -3 72 -372 108
-520 200 -829 572 -1688 1026 -2370 30 -43 50 -83 46 -87 -5 -5 -147 -7 -315
-6 l-307 3 0 -366 0 -365 68 -22 67 -22 64 -247 c36 -137 67 -254 69 -260 3
-10 -50 -13 -247 -13 l-251 0 0 -362 0 -363 62 -25 61 -25 93 -525 c51 -289
98 -555 104 -592 l12 -68 2204 0 2204 0 0 615 0 615 -177 2 -178 3 -3 363 -2
362 -40 0 -40 0 0 155 0 154 -35 7 c-19 3 -37 9 -39 13 -2 3 18 40 45 81 27
41 50 78 51 83 2 4 44 22 93 41 l90 33 3 364 2 364 -342 -3 c-188 -1 -345 1
-350 6 -5 5 29 67 75 138 457 710 806 1474 1036 2269 30 106 142 557 139 561
-2 1 -96 32 -208 69 -381 123 -741 213 -1120 280 -80 15 -149 27 -153 28 -4 1
19 38 52 81 132 176 261 487 292 709 l12 84 43 21 c110 54 107 183 -5 222
l-43 15 5 67 c6 72 56 233 88 285 43 69 -12 67 -135 -6 -147 -86 -446 -390
-719 -731 -179 -224 -264 -327 -370 -450 l-39 -45 42 78 41 77 -30 0 c-82 0
-174 -34 -271 -99 -24 -17 -46 -28 -48 -26 -2 2 6 48 18 102 35 151 107 349
155 423 60 93 69 112 119 261 40 119 46 150 56 277 6 79 8 168 4 198 -6 48 -9
54 -30 54 -13 0 -24 -4 -24 -9z m-15 -219 c-49 -252 -74 -331 -152 -483 -59
-113 -148 -377 -194 -572 -38 -161 -34 -180 29 -130 35 28 170 102 227 123 24
9 24 9 10 -29 -7 -21 -21 -53 -29 -70 -9 -17 -16 -34 -16 -38 0 -18 -13 -49
-29 -67 -9 -11 -10 -16 -3 -12 15 9 16 13 -8 -62 -21 -67 -27 -142 -10 -142
11 0 91 94 169 200 287 389 520 686 714 907 88 101 282 285 330 313 l35 21 3
-98 c5 -120 -3 -277 -13 -245 -5 17 -14 22 -37 22 -49 0 -86 -49 -146 -194
-29 -70 -68 -152 -87 -181 -51 -81 -240 -277 -373 -386 -66 -54 -137 -116
-158 -136 -21 -21 -43 -37 -49 -35 -5 1 -7 -2 -3 -8 3 -5 -3 -23 -14 -39 -11
-15 -26 -50 -33 -76 -10 -38 -21 -53 -50 -71 -20 -13 -42 -33 -49 -45 -10 -20
-9 -21 12 -15 71 22 173 39 176 29 2 -6 12 -9 21 -6 23 5 94 -25 87 -37 -3 -5
1 -7 9 -4 13 5 14 0 6 -28 -13 -43 -12 -51 1 -42 6 3 3 -5 -6 -20 -10 -14 -13
-26 -9 -27 23 -3 156 3 212 10 34 4 62 4 62 -1 0 -7 -34 -80 -73 -155 -7 -13
-18 -23 -24 -23 -19 0 -15 -18 6 -29 18 -10 18 -15 6 -78 -7 -38 -17 -77 -21
-88 -48 -135 -159 -299 -237 -349 -23 -16 -29 -16 -47 -3 -11 7 -17 17 -14 20
4 3 -7 25 -24 48 -17 23 -29 46 -26 51 3 5 0 7 -6 6 -7 -2 -14 4 -15 14 -2 12
9 19 41 27 47 12 54 23 27 41 -14 9 -10 10 22 6 28 -4 35 -2 25 4 -9 6 -59 7
-120 4 -126 -7 -187 -32 -292 -118 -116 -96 -218 -164 -271 -182 -36 -12 -52
-14 -55 -5 -5 16 -22 14 -22 -3 0 -25 -52 -3 -71 30 -10 16 -18 34 -18 41 -1
14 39 60 122 141 32 31 55 62 52 69 -3 7 -8 20 -11 28 -5 13 8 15 88 15 52 0
129 3 171 6 l75 7 32 61 c32 63 96 143 111 138 5 -1 8 4 7 10 -2 7 3 12 10 10
6 -1 11 4 10 10 -2 7 3 12 10 10 8 -1 11 2 8 7 -6 9 64 71 80 71 5 0 23 11 39
25 l30 24 -32 1 c-17 0 -53 -9 -79 -20 -26 -11 -49 -19 -51 -16 -2 2 -7 35
-10 72 -5 68 -5 70 32 114 21 25 32 46 26 48 -29 10 -126 -57 -223 -152 -95
-92 -156 -172 -219 -283 -13 -24 -38 -48 -56 -57 -33 -16 -33 -16 -33 10 0 14
14 60 30 101 17 42 28 79 24 82 -3 3 -17 -7 -31 -24 -18 -21 -23 -24 -19 -10
5 13 4 17 -3 10 -17 -17 -73 -178 -76 -215 -2 -32 -5 -36 -51 -52 -27 -9 -70
-17 -95 -18 -52 0 -70 17 -84 78 -4 22 -12 32 -20 28 -12 -4 -43 58 -46 94 -1
8 -5 -3 -9 -25 l-6 -40 -24 77 c-24 79 -39 92 -41 35 l-1 -32 -15 35 c-23 54
-11 115 57 269 80 181 76 176 123 156 44 -18 44 -20 21 100 -8 44 -19 103 -24
132 -10 59 0 200 24 342 33 190 131 422 245 581 36 49 158 188 266 300 50 52
104 112 120 134 16 21 31 33 33 27 2 -7 -4 -51 -13 -99z m1210 -277 c74 -36
73 -131 -4 -172 -59 -33 -83 -35 -132 -10 -36 18 -45 28 -47 52 l-2 30 19 -22
c10 -13 31 -27 46 -33 53 -20 135 26 135 76 0 33 -28 74 -51 74 -11 0 -19 5
-19 10 0 14 17 12 55 -5z m-20 -75 c0 -18 -6 -35 -12 -37 -9 -3 -13 8 -13 37
0 29 4 40 13 38 6 -3 12 -20 12 -38z m-175 -81 c0 -11 -4 -17 -10 -14 -5 3
-10 15 -10 26 0 11 5 17 10 14 6 -3 10 -15 10 -26z m3 -34 c37 -3 39 -19 17
-131 -17 -94 -31 -136 -80 -259 -5 -11 -11 -27 -14 -35 -5 -14 -3 13 8 80 13
82 26 225 26 288 0 55 3 71 12 66 7 -5 21 -9 31 -9z m-122 -300 c-39 -177 -75
-272 -150 -391 -70 -109 -117 -161 -276 -300 l-70 -61 -49 25 c-27 13 -69 25
-95 27 -25 2 -49 3 -53 4 -4 1 3 29 15 63 26 73 73 124 206 223 94 70 136 104
230 183 67 57 177 199 221 287 43 85 48 69 21 -60z m-1761 -890 c-62 -135 -96
-274 -70 -290 6 -4 19 -24 30 -45 17 -33 17 -40 5 -50 -8 -7 -22 -38 -32 -69
-9 -31 -18 -58 -20 -60 -1 -2 -14 4 -28 13 -23 15 -26 15 -31 1 -9 -23 5 -133
21 -172 22 -52 102 -150 148 -181 48 -33 98 -52 137 -52 22 0 30 -8 46 -42 24
-54 51 -78 86 -78 17 0 31 -7 38 -20 6 -12 21 -20 35 -20 19 0 25 -5 25 -21 0
-19 4 -21 38 -14 40 7 39 6 -24 -43 l-42 -32 -142 0 -142 0 -72 -72 c-40 -40
-101 -116 -135 -168 -41 -61 -73 -99 -91 -107 -31 -12 -100 -107 -100 -135 0
-20 -22 -23 -51 -8 -27 15 -117 210 -148 323 -12 43 -12 49 4 67 24 27 130 79
175 86 34 6 38 11 77 92 33 70 42 102 48 167 7 91 21 147 47 190 36 60 14 104
-74 150 -28 15 -64 36 -79 47 -53 39 -137 3 -155 -67 -3 -14 3 -50 14 -85 20
-58 20 -60 2 -70 -28 -15 -40 -13 -77 16 -40 30 -58 69 -107 224 l-34 111 38
25 c26 18 45 23 62 19 14 -4 44 -2 66 4 33 9 44 19 61 54 29 60 26 80 -17 119
-29 27 -54 38 -103 47 -35 7 -86 19 -113 27 l-49 14 -27 -30 c-16 -18 -71 -49
-140 -80 -63 -28 -120 -55 -127 -61 -7 -6 -32 -17 -55 -23 -30 -9 -47 -22 -58
-42 -19 -36 -69 -114 -114 -179 -20 -27 -36 -55 -36 -61 0 -6 -21 -25 -46 -43
-72 -53 -80 -91 -35 -185 21 -44 31 -81 34 -131 3 -58 13 -89 53 -175 26 -58
59 -121 72 -142 20 -30 22 -44 17 -82 -10 -62 6 -96 61 -134 62 -44 117 -165
199 -442 20 -68 43 -136 51 -151 8 -16 21 -61 29 -101 22 -103 113 -411 140
-472 13 -28 38 -69 56 -90 39 -45 126 -112 165 -126 14 -6 45 -24 68 -40 22
-16 70 -36 106 -45 36 -9 100 -32 143 -52 72 -34 94 -56 65 -64 -7 -2 -149 -3
-315 -1 l-302 3 -109 162 c-495 738 -853 1561 -1051 2420 -23 97 -41 183 -41
190 0 24 486 153 846 226 286 58 636 108 909 131 194 15 199 16 207 13 4 -2
-11 -41 -32 -88z m1920 -36 c207 -40 517 -117 723 -179 92 -27 170 -50 172
-50 12 0 1 -51 -50 -236 -213 -768 -539 -1503 -970 -2191 -93 -147 -131 -202
-121 -171 3 9 10 45 17 80 7 37 39 122 79 208 103 219 143 339 144 430 0 47
-5 84 -14 100 -10 19 -13 59 -11 160 3 174 -16 249 -104 425 -36 72 -65 141
-65 153 0 38 -46 165 -84 228 -35 60 -83 115 -123 141 -16 11 -24 31 -33 86
-7 40 -23 114 -36 165 l-25 92 35 79 c45 103 73 195 82 270 6 53 12 67 56 118
27 32 56 75 66 96 17 37 18 38 62 32 25 -4 115 -20 200 -36z m-1026 -136 c5
-38 2 -47 -44 -115 -27 -40 -55 -80 -62 -88 -30 -36 -115 -53 -136 -27 -9 10
-2 27 25 68 42 62 158 208 182 227 18 15 24 4 35 -65z m-1511 7 c128 -18 175
-59 144 -125 -17 -36 -68 -65 -99 -57 -13 3 -14 10 -8 32 8 28 5 40 -11 40 -4
0 -17 -16 -29 -36 -16 -24 -27 -33 -38 -29 -9 3 -13 3 -9 -1 4 -4 -5 -20 -19
-35 l-27 -28 18 -73 c10 -40 19 -82 20 -93 5 -40 44 -125 74 -163 38 -49 138
-97 194 -93 27 2 21 31 -7 31 l-24 0 29 29 c34 34 38 55 9 46 -23 -7 -40 25
-40 78 0 58 68 100 100 62 7 -8 16 -15 21 -15 20 0 126 -78 134 -98 7 -19 -14
-54 -27 -46 -6 4 -8 3 -4 -4 3 -6 1 -23 -4 -38 -6 -15 -11 -42 -12 -60 -1 -28
-4 -32 -15 -22 -8 6 -12 16 -10 23 3 6 -3 12 -13 12 -10 1 -20 -7 -23 -18 -3
-10 -1 -16 4 -13 15 9 39 -62 38 -113 l-1 -48 -13 43 c-14 44 -58 105 -69 95
-3 -3 -1 -14 5 -25 6 -11 8 -26 5 -33 -3 -8 0 -15 5 -17 15 -5 14 -119 -1
-161 -13 -34 -18 -38 -42 -35 -15 3 -25 2 -23 -1 2 -4 -22 -14 -52 -23 -31 -9
-50 -11 -44 -5 6 6 11 20 11 30 0 15 -3 17 -13 8 -8 -6 -16 -9 -19 -6 -3 3 -4
-9 -3 -26 1 -21 -6 -39 -21 -54 l-23 -23 -16 24 c-9 14 -13 29 -10 34 3 6 2
10 -4 10 -6 0 -15 19 -22 43 -10 38 -12 40 -20 20 -5 -13 -4 -46 2 -78 5 -30
7 -61 3 -68 -4 -6 -4 -9 1 -5 10 9 126 -233 120 -250 -3 -7 -1 -11 3 -8 5 3
27 -32 50 -77 23 -45 62 -109 87 -142 25 -33 57 -84 72 -113 16 -31 32 -51 40
-48 11 5 33 -48 33 -80 0 -7 7 -14 15 -18 10 -3 15 -19 15 -47 0 -59 10 -43
11 18 2 60 -8 93 -27 93 -8 0 -13 3 -12 8 1 4 -4 23 -11 42 -11 31 -14 33 -21
15 -6 -17 -8 -16 -14 12 -4 18 -25 59 -46 93 -22 33 -35 60 -28 60 6 0 35 -15
65 -32 30 -18 71 -43 91 -54 20 -12 36 -26 35 -32 -2 -7 4 -9 14 -5 12 5 14 3
8 -7 -5 -8 -4 -11 3 -6 6 4 29 -12 51 -36 22 -24 62 -68 90 -98 28 -30 51 -60
51 -67 0 -7 4 -13 9 -13 12 0 44 -88 36 -100 -4 -6 1 -50 10 -97 28 -138 4
-259 -72 -373 l-47 -71 -35 35 c-20 19 -61 56 -91 82 -30 25 -67 57 -82 70
-15 13 -30 24 -33 24 -6 0 -99 93 -139 139 -15 18 -40 59 -55 90 -28 61 -27
46 -23 366 4 226 4 215 -14 185 -8 -14 -13 -18 -11 -10 2 8 7 26 11 40 l7 25
-20 -23 c-25 -28 -33 -70 -29 -137 l3 -50 12 55 c10 49 11 40 7 -85 -2 -77 -7
-188 -10 -247 -5 -96 -3 -114 22 -195 15 -48 44 -128 66 -177 21 -49 37 -95
34 -103 -3 -8 -2 -12 3 -9 11 7 26 -27 67 -144 17 -52 36 -94 41 -93 21 6 12
71 -23 173 -3 8 3 2 14 -13 11 -16 30 -60 43 -99 35 -103 86 -150 152 -139 17
3 5 -15 -19 -26 -22 -10 -33 -9 -68 9 -22 11 -49 28 -60 37 -10 9 -19 15 -20
13 0 -2 -14 1 -29 7 -16 6 -33 11 -38 11 -5 0 -9 4 -9 10 0 5 -6 7 -14 4 -17
-6 -47 8 -96 46 -19 15 -47 31 -63 34 -15 4 -36 15 -47 26 -11 11 -23 20 -28
20 -14 0 -63 60 -57 70 4 6 1 9 -5 8 -13 -3 -41 36 -60 82 -6 14 -15 34 -20
45 -20 40 -92 262 -116 359 -14 54 -37 137 -53 185 -16 47 -34 106 -41 131 -7
25 -17 57 -22 72 -6 15 -8 34 -4 43 3 8 0 14 -6 12 -6 -1 -31 45 -54 103 -44
105 -44 105 -14 70 56 -64 96 -155 175 -396 24 -71 53 -177 65 -235 35 -172
51 -230 81 -306 65 -164 110 -215 252 -288 22 -10 46 -29 55 -40 10 -12 25
-24 34 -28 15 -5 18 -1 15 28 -1 19 -6 35 -10 35 -4 0 -15 17 -23 38 -28 72
-69 157 -81 170 -7 7 -13 18 -13 23 0 5 -15 32 -33 61 -38 60 -87 155 -87 169
0 5 -10 23 -21 38 -13 17 -18 34 -14 42 5 7 4 10 -2 6 -12 -8 -67 119 -58 134
4 5 3 9 -2 9 -9 0 -49 89 -45 101 1 5 -2 9 -7 9 -4 0 -43 71 -86 158 -87 174
-185 330 -224 355 -14 10 -45 31 -68 48 l-43 30 0 127 -1 127 -24 -29 -24 -30
-7 30 c-4 16 -21 58 -39 94 -68 138 -75 214 -11 118 21 -32 41 -58 43 -58 2 0
1 12 -2 28 l-6 27 25 -30 26 -30 -6 35 c-4 19 -14 51 -24 70 -9 19 -32 75 -50
123 -30 81 -32 92 -21 120 7 18 16 50 20 73 7 41 31 81 82 140 14 18 39 57 54
87 22 46 50 76 60 65 4 -5 -38 -82 -79 -143 -21 -32 -38 -69 -38 -83 0 -29
-36 -94 -48 -87 -5 3 -12 0 -16 -6 -4 -8 -3 -9 4 -5 8 5 12 -3 12 -24 0 -17 9
-48 20 -69 10 -21 16 -42 12 -46 -4 -5 -2 -5 4 -2 11 6 47 -61 49 -90 0 -6 4
-15 9 -20 5 -5 6 -2 2 7 -6 13 -6 13 4 0 6 -8 26 -40 45 -70 63 -101 39 -19
-40 135 -83 163 -83 158 -18 235 25 30 26 33 10 45 -16 11 -14 17 19 65 20 29
52 86 71 127 20 40 39 73 45 73 8 0 90 35 111 47 4 2 -13 -27 -38 -65 -25 -39
-45 -75 -45 -80 0 -6 -23 -44 -51 -86 -51 -75 -52 -77 -46 -134 3 -31 18 -89
35 -129 22 -53 26 -75 18 -84 -8 -9 -8 -10 1 -5 14 8 47 -49 38 -65 -4 -5 -1
-8 7 -7 7 2 12 -4 10 -12 -2 -8 0 -12 4 -8 4 4 13 3 21 -3 21 -18 16 5 -16 69
-35 71 -81 213 -81 253 0 36 15 68 42 89 63 48 73 60 59 69 -9 6 -11 18 -6 42
10 50 37 88 102 144 31 28 68 62 82 77 14 15 32 25 39 23 8 -3 46 -10 85 -15z
m701 -373 c38 -29 52 -128 23 -164 -5 -7 -7 -13 -3 -13 3 0 -3 -15 -14 -32
-11 -18 -20 -41 -20 -50 0 -30 -16 -21 -63 35 -44 52 -68 91 -81 135 -7 20 -4
22 27 22 34 0 34 1 40 50 3 27 11 59 17 71 11 20 12 20 35 -11 13 -17 30 -37
39 -43z m250 -91 c-70 -68 -91 -83 -102 -73 -13 10 -72 106 -72 117 0 3 30 5
68 5 51 1 80 7 122 26 30 15 59 23 64 18 5 -5 -29 -45 -80 -93z m705 -29 l44
-62 -62 60 c-33 33 -61 61 -61 62 0 2 8 3 18 2 9 0 37 -28 61 -62z m-126 -26
c4 -33 3 -70 -1 -81 -7 -20 -8 -20 -42 5 -43 32 -58 32 -66 -2 -19 -87 -20
-88 -45 -85 -26 3 -189 -75 -189 -90 0 -13 53 0 113 27 47 22 51 23 83 7 19
-8 33 -17 31 -18 -7 -8 -171 -44 -222 -49 l-60 -6 -14 47 c-11 36 -11 49 -2
52 15 5 79 51 179 129 75 58 210 135 223 127 3 -2 9 -30 12 -63z m-2222 15
l-22 -35 41 -103 c23 -56 46 -111 52 -121 21 -40 -2 -26 -33 20 -17 26 -42 59
-54 73 -29 32 -49 94 -41 126 6 24 65 88 74 80 2 -3 -5 -21 -17 -40z m2709
-23 c27 -94 52 -237 57 -330 5 -88 4 -103 -9 -103 -19 0 -40 73 -68 240 -12
68 -24 127 -27 130 -3 3 -2 -42 1 -100 7 -115 -6 -172 -18 -76 -8 63 -25 85
-27 34 -3 -86 -15 -82 -28 9 l-14 92 57 63 c31 35 56 66 56 71 0 19 10 4 20
-30z m-1250 19 c0 -4 16 -24 36 -44 19 -21 33 -42 29 -48 -3 -5 1 -10 10 -10
9 0 13 5 10 10 -3 6 -2 10 3 10 6 0 12 -17 14 -37 3 -21 8 -45 12 -54 10 -23
-53 -34 -100 -19 -42 14 -51 43 -29 96 24 57 27 77 10 70 -10 -4 -15 1 -15 14
0 11 5 20 10 20 6 0 10 -4 10 -8z m898 -131 c4 -13 -183 -104 -201 -99 -10 2
-11 14 -4 46 8 41 10 43 26 28 9 -9 31 -19 49 -22 27 -5 33 -3 41 17 19 49 24
64 22 73 -3 12 63 -30 67 -43z m-765 -123 c2 -13 8 -31 12 -40 14 -35 -25 -18
-42 18 -15 30 -15 36 -3 44 18 11 26 6 33 -22z m175 7 c17 -37 15 -45 -15 -77
-45 -47 -63 -37 -103 57 l-18 42 62 2 c58 2 63 0 74 -24z m1127 -185 c23 -36
53 -90 67 -121 l26 -57 -62 61 c-77 78 -111 131 -119 186 l-5 43 25 -24 c14
-12 45 -52 68 -88z m-958 -10 c-6 -22 -15 -40 -20 -40 -4 0 -5 -4 -2 -10 8
-13 -31 -96 -50 -104 -12 -4 -15 4 -15 43 0 26 3 69 6 94 6 42 9 46 38 50 17
2 36 5 42 5 8 2 8 -9 1 -38z m-132 -68 c-4 -9 -9 -30 -10 -45 -4 -37 -5 -37
-45 -28 -19 4 -50 4 -68 0 l-33 -7 43 37 c79 68 113 89 116 74 2 -8 1 -22 -3
-31z m921 15 c102 -22 210 -98 274 -195 39 -60 38 -67 -7 -38 -41 26 -116 49
-79 24 114 -78 183 -164 216 -270 29 -91 27 -250 -3 -338 -54 -159 -173 -322
-276 -379 l-43 -23 41 64 c23 36 41 71 41 77 0 7 5 9 12 5 7 -4 8 -3 4 4 -4 6
-1 20 6 31 10 16 10 23 1 32 -9 9 -9 18 -2 31 13 25 3 52 -16 44 -18 -7 -20
10 -2 18 9 5 9 7 0 12 -7 3 -10 11 -7 18 4 9 -4 13 -24 12 -17 -1 -28 -4 -26
-8 2 -3 -11 -12 -30 -18 -19 -6 -49 -27 -65 -46 l-31 -34 6 29 c10 49 -10 41
-37 -15 -14 -29 -22 -51 -17 -48 11 7 9 -4 -7 -46 l-13 -35 -2 45 c-1 43 -3
41 -26 -44 -13 -50 -27 -92 -29 -95 -3 -2 -5 20 -6 50 -2 91 -17 115 -18 29
-1 -41 -4 -93 -8 -115 -6 -36 -7 -37 -13 -15 -6 23 -8 22 -28 -22 -12 -26 -22
-51 -22 -57 0 -5 -4 -12 -9 -16 -6 -3 -6 6 -1 23 16 58 -6 51 -34 -11 -16 -34
-38 -73 -50 -86 -27 -30 -91 -71 -110 -71 -9 0 -35 -6 -58 -14 -25 -8 -101
-16 -180 -18 -156 -5 -161 0 -52 52 62 29 82 50 47 50 -27 0 -176 -62 -200
-83 -12 -11 -27 -16 -34 -12 -8 5 -10 4 -5 -3 4 -7 2 -12 -4 -12 -6 0 -19 -7
-27 -16 -9 -8 -24 -13 -35 -11 -10 3 -16 2 -13 -2 4 -7 -175 -34 -182 -27 -14
13 219 151 242 142 6 -2 12 6 13 19 l2 22 -57 -19 c-32 -10 -63 -16 -71 -13
-7 2 -10 1 -7 -5 3 -5 -11 -14 -32 -20 -68 -19 -158 -77 -220 -139 -22 -23
-43 -41 -47 -41 -11 0 35 83 71 128 43 52 137 117 154 106 7 -4 10 -3 6 3 -4
5 4 15 16 21 75 35 115 52 128 52 8 0 21 5 29 11 30 20 -74 3 -140 -24 l-65
-26 50 45 c50 45 103 80 118 76 4 -1 7 2 7 7 0 5 10 12 23 16 12 4 24 8 27 10
3 1 22 9 43 19 49 21 43 41 -11 40 l-42 0 20 21 c11 12 17 25 13 28 -3 4 -19
-7 -35 -25 -15 -17 -31 -29 -34 -25 -8 8 16 38 25 32 4 -2 8 2 8 11 0 10 -8
13 -26 10 -14 -2 -25 -8 -24 -14 3 -14 -24 -35 -37 -27 -6 4 2 19 20 38 32 34
35 43 21 51 -5 3 -24 -12 -42 -34 -24 -28 -41 -40 -59 -39 -15 0 -19 3 -10 6
24 9 40 25 35 33 -3 5 -18 2 -33 -5 -57 -28 -69 -27 -103 3 -21 19 -37 46 -45
78 -8 27 -16 59 -20 72 -5 18 -2 22 17 22 40 0 126 46 135 72 7 22 9 29 12 54
1 6 29 14 63 17 64 6 88 23 89 62 0 12 9 38 20 60 25 49 25 78 0 132 -22 49
-22 49 68 58 38 3 60 1 75 -10 13 -9 45 -15 83 -15 33 0 87 -8 120 -19 32 -10
80 -25 106 -32 26 -7 44 -17 41 -23 -3 -5 -1 -6 4 -3 18 11 76 -20 118 -62 29
-31 35 -41 22 -41 -15 0 -17 -6 -12 -32 4 -18 2 -44 -4 -58 l-10 -25 0 27 c-2
53 -18 36 -24 -23 -3 -33 -11 -67 -19 -76 -11 -14 -14 -12 -18 23 l-6 39 -14
-60 c-21 -91 -37 -109 -32 -35 3 40 1 60 -7 60 -6 0 -11 -3 -12 -7 -8 -93 -26
-160 -46 -167 -11 -5 -13 -2 -9 10 3 9 9 34 13 56 4 30 3 39 -5 34 -7 -4 -12
-14 -12 -21 0 -19 -50 -124 -62 -131 -6 -4 -5 4 2 16 21 39 0 35 -38 -7 -25
-28 -50 -46 -77 -52 -41 -11 -90 -40 -68 -41 20 0 145 29 202 48 98 31 241
177 307 312 22 44 49 85 61 91 23 12 33 13 146 9 126 -4 100 22 -70 69 -65 18
-138 40 -163 48 -25 9 -67 24 -94 33 -31 10 -45 19 -37 24 6 4 19 5 27 2 8 -3
13 -2 10 3 -7 10 60 25 74 16 5 -3 14 3 19 14 21 38 24 38 -138 7 -86 -16 -96
-16 -169 4 -35 9 -42 15 -37 28 4 9 12 36 18 59 10 41 9 45 -22 83 -21 26 -30
47 -26 59 9 30 117 126 171 154 46 23 160 61 214 70 55 9 208 6 266 -6z
m-1165 -99 c-27 -24 -32 -34 -24 -47 6 -9 16 -15 23 -13 21 5 -55 -65 -89 -81
-19 -10 -47 -17 -62 -17 -25 0 -76 -33 -106 -70 -7 -8 -18 -33 -24 -55 -9 -34
-15 -41 -37 -43 -43 -3 -68 -21 -91 -67 -11 -23 -21 -46 -21 -51 0 -5 -4 -15
-9 -23 -7 -11 -14 -10 -40 8 -17 13 -29 27 -26 32 4 5 -1 6 -11 2 -13 -5 -15
-2 -9 18 4 13 17 39 29 56 21 33 21 33 24 8 5 -41 27 -29 50 28 34 82 120 205
195 280 l68 67 97 0 97 -1 -34 -31z m129 -30 c0 -9 3 -9 12 0 18 18 64 15 131
-10 l59 -22 -26 -19 c-15 -11 -26 -28 -26 -42 0 -35 17 -39 23 -7 4 17 16 33
32 40 44 20 48 14 16 -23 -17 -20 -31 -47 -31 -60 0 -35 17 -31 25 5 7 32 51
74 67 64 5 -3 1 -12 -9 -19 -25 -19 -8 -31 23 -16 22 9 30 8 55 -9 59 -43 70
-75 44 -137 -13 -30 -17 -34 -31 -23 -12 11 -15 11 -12 -1 6 -27 -67 -23 -123
7 -64 35 -86 63 -106 136 -9 32 -20 58 -24 58 -11 0 -28 -63 -19 -70 4 -3 9
-14 12 -25 3 -11 9 -29 14 -39 6 -15 4 -18 -9 -13 -8 3 -17 1 -19 -5 -3 -8
-11 -7 -26 1 -13 7 -20 16 -17 21 3 6 0 7 -8 4 -11 -4 -23 13 -43 55 -36 76
-58 81 -52 12 l5 -48 -58 20 -58 19 27 34 c15 19 32 34 37 34 6 0 28 20 48 45
36 43 67 58 67 33z m-112 -193 c28 -10 52 -21 52 -25 0 -3 -11 -17 -24 -29
-33 -31 -52 -79 -38 -93 8 -8 17 2 32 35 12 25 28 48 36 51 19 7 18 -1 -6 -31
-20 -26 -28 -83 -11 -83 5 0 12 12 16 28 3 15 14 35 22 45 20 22 58 23 49 2
-3 -9 8 -43 24 -77 17 -34 30 -74 30 -90 0 -39 -38 -62 -86 -54 -59 12 -81 26
-113 75 -65 99 -69 102 -159 114 -71 9 -83 14 -88 32 -7 29 8 65 42 99 28 27
32 28 99 23 39 -3 94 -13 123 -22z m-210 -156 c26 -7 49 -13 50 -15 2 -1 -10
-15 -27 -31 -32 -30 -47 -92 -23 -100 8 -3 12 6 12 26 0 30 10 44 60 84 40 33
44 3 6 -35 -26 -26 -36 -45 -36 -67 0 -17 5 -31 10 -31 6 0 10 11 10 25 0 28
24 71 44 78 10 4 12 -1 8 -15 -4 -17 -1 -19 16 -14 23 8 42 -17 42 -54 0 -13
4 -19 11 -14 8 5 10 -1 7 -20 -3 -14 -2 -26 2 -26 4 0 13 -14 20 -31 12 -27
11 -33 -7 -50 -23 -24 -111 -41 -98 -19 5 9 4 11 -4 6 -6 -4 -25 -2 -41 6 -28
12 -34 21 -31 40 0 4 -5 5 -12 2 -14 -5 -49 28 -45 42 4 15 -13 54 -24 54 -5
0 -12 -9 -15 -20 -4 -15 -9 -17 -23 -10 -10 6 -22 19 -25 30 -3 11 -13 20 -21
20 -8 0 -12 -4 -9 -10 12 -19 -4 -10 -33 20 -30 29 -30 30 -15 72 8 24 19 49
25 55 13 16 103 17 166 2z m-14 -294 c4 -13 2 -14 -14 -5 -23 13 -26 20 -6 20
8 0 16 -7 20 -15z m1803 -217 c-5 -85 -29 -171 -90 -320 -17 -43 -35 -78 -39
-78 -4 0 -8 -6 -8 -13 0 -25 -60 -138 -70 -132 -5 3 -7 0 -4 -8 5 -14 -80
-158 -98 -165 -4 -2 -8 -10 -8 -17 0 -8 -9 -19 -20 -25 -23 -12 -27 -30 -7
-30 13 0 88 75 119 120 l18 25 -6 -30 c-7 -33 -76 -181 -97 -207 -11 -13 -33
-16 -133 -17 l-119 0 -1 27 c-1 22 8 33 45 58 33 21 45 35 43 49 -5 27 -7 28
-34 15 -17 -9 -13 -2 15 27 20 21 37 42 37 46 0 17 -39 4 -75 -25 l-40 -31 36
39 c65 70 94 115 81 123 -9 5 -5 15 13 35 14 15 25 31 25 37 0 11 -30 13 -30
2 0 -5 -13 -16 -28 -26 -15 -10 -8 0 16 21 43 40 43 64 0 41 -16 -9 -13 -1 15
31 35 41 40 67 11 56 -11 -4 -12 -2 -4 12 18 30 48 62 60 62 6 0 28 11 48 25
20 14 43 25 50 25 7 0 11 3 8 8 -2 4 9 15 25 25 l30 17 -21 -30 c-18 -25 -19
-30 -6 -30 9 0 16 5 16 12 0 9 3 9 11 1 9 -9 0 -25 -32 -65 -24 -29 -48 -56
-53 -59 -4 -4 -4 -9 2 -13 6 -3 25 6 44 21 25 20 23 16 -11 -20 -24 -25 -49
-43 -55 -40 -6 3 -8 2 -3 -2 4 -5 -5 -21 -20 -37 -15 -15 -22 -28 -16 -28 12
0 72 46 85 65 5 7 8 6 8 -1 0 -6 -23 -33 -51 -59 -52 -48 -58 -66 -17 -45 19
10 18 8 -6 -14 -21 -18 -24 -26 -13 -26 9 0 19 5 22 10 3 6 10 10 16 10 18 0
9 -20 -21 -47 -29 -25 -42 -52 -19 -37 6 3 3 -5 -6 -20 -10 -14 -14 -26 -11
-26 11 0 -13 -40 -71 -117 -29 -40 -48 -73 -42 -73 16 0 69 47 62 54 -6 6 13
10 30 7 5 -1 6 3 2 9 -3 5 23 47 58 92 35 46 76 106 92 133 16 28 36 56 44 63
9 8 10 10 3 7 -8 -4 -3 10 11 31 13 22 34 62 46 89 28 63 101 278 101 298 0 8
7 28 15 43 8 16 15 50 15 77 0 26 3 47 6 47 4 0 4 -37 1 -82z m-297 58 c0 -3
-4 -8 -10 -11 -5 -3 -10 -1 -10 4 0 6 5 11 10 11 6 0 10 -2 10 -4z m8 -43
c-16 -39 -32 -54 -18 -19 12 33 19 46 25 46 3 0 -1 -12 -7 -27z m-1421 -45
c-3 -8 -6 -5 -6 6 -1 11 2 17 5 13 3 -3 4 -12 1 -19z m1543 -175 c-1 -14 -30
-47 -36 -41 -3 4 3 15 13 26 21 23 23 25 23 15z m-1671 -453 l32 0 -32 -38
c-32 -38 -33 -38 -81 -31 -32 5 -55 16 -68 31 -20 24 -50 111 -50 146 0 11 -7
37 -15 58 -14 35 -5 29 83 -63 85 -89 103 -103 131 -103z m847 84 c100 -41
241 -145 227 -167 -3 -6 -1 -7 5 -3 7 4 17 2 24 -4 7 -6 22 -17 32 -24 17 -12
17 -13 2 -19 -12 -5 -37 13 -87 60 -76 72 -118 100 -219 144 -36 16 -56 29
-44 29 12 0 39 -7 60 -16z m-671 -85 c-13 -20 -96 -70 -107 -63 -6 4 -8 3 -5
-3 6 -9 -43 -53 -60 -53 -15 0 93 102 127 120 34 18 56 18 45 -1z m165 8 c0
-2 -11 -14 -26 -28 -22 -21 -24 -21 -18 -4 4 11 12 23 18 27 11 8 26 10 26 5z
m-6 -79 c-22 -24 -47 -54 -56 -68 -17 -25 -17 -25 -17 -2 -1 12 4 22 9 22 6 0
9 3 9 8 -3 20 2 32 15 32 8 0 28 11 43 25 41 36 40 30 -3 -17z m-7 -82 c-17
-24 -36 -41 -41 -38 -5 3 -6 0 -2 -6 4 -7 4 -17 0 -23 -4 -8 -9 -7 -15 2 -13
21 -11 49 4 43 7 -2 28 11 47 31 19 19 35 35 37 35 1 0 -12 -20 -30 -44z m854
-63 c-13 -18 -26 -22 -65 -23 -27 0 -46 3 -43 7 22 21 66 40 93 39 30 -1 31
-2 15 -23z m88 14 c-2 -1 -15 -11 -29 -22 l-25 -20 19 23 c11 12 24 22 29 22
6 0 8 -1 6 -3z m-2189 -447 l0 -130 -33 -17 -34 -18 63 -238 c34 -131 64 -240
66 -243 2 -2 30 101 62 229 32 127 60 237 62 243 3 5 -11 18 -31 27 l-35 17 0
130 0 130 1012 0 1012 0 58 -57 58 -57 0 57 0 57 235 0 235 0 0 -130 0 -129
-30 -16 -31 -16 19 -32 c11 -18 34 -58 51 -89 18 -32 36 -58 39 -58 9 0 102
162 102 176 0 6 -11 16 -25 22 -25 11 -25 13 -25 142 l0 130 200 0 200 0 0
-129 0 -129 -45 -17 c-47 -18 -46 -18 -233 -311 l-52 -81 0 -110 0 -110 60
-17 60 -17 0 -130 0 -129 -275 0 -275 0 0 130 0 130 60 17 60 16 0 108 0 108
-72 113 c-40 62 -97 149 -125 193 l-53 80 0 -125 0 -125 -72 -73 -73 -73 40
-76 c66 -124 70 -130 109 -137 l36 -7 0 -139 0 -140 -137 0 -138 0 -115 230
-115 229 -37 0 -38 1 0 -84 0 -83 53 -14 52 -14 3 -133 3 -132 -696 0 -696 0
3 132 3 131 53 15 52 15 0 297 0 298 -31 11 c-40 14 -68 14 -106 1 -36 -13
-24 21 -174 -523 l-103 -377 -201 2 -200 3 -56 210 c-30 116 -82 313 -115 439
l-59 230 -47 20 -48 20 0 128 0 128 255 0 255 0 0 -130z m-252 -1296 l3 -130
-35 -16 -34 -17 34 -143 c18 -79 43 -187 55 -241 12 -54 26 -94 29 -90 8 9
110 440 110 464 0 9 -13 22 -30 29 l-30 12 0 134 0 134 260 0 260 0 0 -134 0
-134 -31 -12 c-29 -12 -31 -16 -25 -49 8 -49 108 -462 112 -459 3 4 104 471
104 483 0 6 -14 18 -30 27 l-31 17 3 128 3 128 868 3 867 2 0 -133 0 -133 -57
-15 -58 -15 -3 -297 -2 -298 117 3 118 3 14 78 13 77 109 0 109 0 0 -96 c0
-95 0 -96 23 -90 12 4 34 9 49 12 35 8 34 1 28 334 l-5 274 -47 15 -48 15 0
133 0 133 265 0 265 0 0 -132 0 -133 -60 -18 -60 -17 0 -295 0 -295 118 0 118
0 13 80 13 80 109 0 109 0 0 -225 0 -225 -1330 0 -1330 0 0 129 0 128 53 14
52 14 0 300 0 300 -37 9 c-25 6 -45 5 -65 -3 -28 -11 -29 -17 -127 -439 -55
-235 -102 -433 -104 -440 -3 -10 -48 -12 -196 -10 l-191 3 -55 242 c-30 134
-58 243 -61 243 -3 0 -11 -24 -17 -52 -7 -29 -33 -140 -59 -245 l-46 -193
-204 0 c-111 0 -203 2 -203 4 0 19 -193 872 -198 877 -4 4 -24 12 -44 19 l-38
12 0 134 0 134 243 -2 242 -3 3 -131z m1106 -1224 c39 -15 32 -32 -9 -24 -66
12 -103 -57 -50 -92 21 -13 31 -15 50 -6 17 8 26 8 31 1 17 -28 -67 -39 -103
-14 -47 33 -35 113 20 135 29 12 31 12 61 0z m394 -27 c67 -75 -52 -169 -123
-98 -29 28 -32 61 -9 93 34 48 92 50 132 5z m1338 27 c8 0 14 -6 14 -14 0 -9
-12 -13 -37 -12 -46 1 -53 -24 -10 -35 55 -15 71 -43 41 -73 -26 -26 -104 -19
-104 10 0 10 6 11 26 3 30 -11 67 -3 61 14 -2 6 -18 16 -37 22 -39 13 -56 35
-47 59 8 19 46 37 65 30 8 -2 20 -4 28 -4z m140 0 c8 0 14 -6 14 -14 0 -9 -12
-13 -37 -12 -46 1 -53 -24 -10 -35 55 -15 71 -43 41 -73 -26 -26 -104 -19
-104 10 0 10 6 11 26 3 30 -11 67 -3 61 14 -2 6 -18 16 -37 22 -39 13 -56 35
-47 59 8 19 46 37 65 30 8 -2 20 -4 28 -4z m-2356 -10 c0 -5 -18 -10 -40 -10
-36 0 -40 -2 -40 -25 0 -22 4 -25 35 -25 19 0 35 -4 35 -10 0 -5 -16 -10 -35
-10 -32 0 -35 -2 -35 -30 0 -20 -5 -30 -15 -30 -12 0 -15 15 -15 75 l0 75 55
0 c30 0 55 -4 55 -10z m62 -46 c2 -40 8 -60 20 -67 29 -19 48 9 48 69 0 41 4
54 15 54 22 0 21 -107 -2 -132 -20 -22 -70 -23 -95 -1 -24 21 -27 133 -3 133
10 0 15 -15 17 -56z m207 10 l41 -47 0 47 c0 34 4 46 15 46 12 0 15 -15 15
-75 0 -41 -4 -75 -9 -75 -5 0 -27 20 -49 45 -22 25 -42 45 -46 45 -3 0 -6 -20
-6 -45 0 -33 -4 -45 -15 -45 -12 0 -15 15 -15 75 0 91 10 95 69 29z m381 36
c0 -5 -11 -10 -25 -10 -24 0 -25 -2 -25 -65 0 -51 -3 -65 -15 -65 -12 0 -15
14 -15 65 0 63 -1 65 -25 65 -14 0 -25 5 -25 10 0 6 28 10 65 10 37 0 65 -4
65 -10z m50 -65 c0 -60 -3 -75 -15 -75 -12 0 -15 15 -15 75 0 60 3 75 15 75
12 0 15 -15 15 -75z m295 28 l44 -48 1 48 c0 35 4 47 15 47 12 0 15 -15 15
-75 0 -91 -10 -95 -69 -27 l-40 47 -2 -35 c-1 -19 -1 -41 0 -47 1 -7 -5 -13
-14 -13 -12 0 -15 14 -15 75 0 47 4 75 11 75 6 0 30 -21 54 -47z m220 -25 c21
-45 29 -74 23 -77 -6 -2 -17 4 -23 13 -8 10 -27 16 -50 16 -23 0 -42 -6 -50
-16 -6 -9 -16 -15 -22 -13 -15 6 55 149 73 149 9 0 28 -29 49 -72z m85 13 l0
-60 37 -3 c62 -5 53 -28 -11 -28 l-56 0 0 75 c0 60 3 75 15 75 12 0 15 -13 15
-59z m270 49 c0 -5 -18 -10 -40 -10 -36 0 -40 -2 -40 -25 0 -22 4 -25 40 -25
22 0 40 -4 40 -10 0 -5 -18 -10 -40 -10 -38 0 -40 -2 -40 -30 0 -20 -5 -30
-15 -30 -12 0 -15 15 -15 75 l0 75 55 0 c30 0 55 -4 55 -10z m60 -65 c0 -60
-3 -75 -15 -75 -12 0 -15 15 -15 75 0 60 3 75 15 75 12 0 15 -15 15 -75z m150
66 c0 -5 -10 -11 -22 -13 -21 -3 -23 -9 -26 -65 -2 -47 -7 -63 -17 -63 -12 0
-15 15 -15 65 0 63 -1 65 -25 65 -14 0 -25 5 -25 10 0 6 28 10 65 10 36 0 65
-4 65 -9z m89 -38 l40 -48 1 48 c0 35 4 47 15 47 12 0 15 -15 15 -76 0 -90 -7
-92 -69 -21 l-41 48 0 -50 c0 -39 -4 -51 -15 -51 -12 0 -15 15 -15 75 0 91 10
95 69 28z m221 37 c0 -5 -18 -10 -40 -10 -33 0 -40 -3 -40 -20 0 -17 7 -20 41
-20 24 0 38 -4 34 -10 -3 -5 -22 -10 -41 -10 -27 0 -34 -4 -34 -19 0 -16 8
-20 42 -23 23 -2 43 -9 46 -15 3 -10 -13 -13 -57 -13 l-61 0 0 75 0 75 55 0
c30 0 55 -4 55 -10z"/>
<path d="M5667 9013 c-106 -180 -262 -519 -305 -663 -11 -35 -45 -209 -57
-288 -7 -45 10 -132 26 -132 5 0 9 14 9 30 0 17 7 72 15 123 29 181 77 336
147 472 106 210 120 241 160 359 22 66 47 134 55 149 8 16 13 33 11 38 -2 5
-29 -35 -61 -88z"/>
<path d="M6718 8852 c-38 -40 -70 -97 -108 -190 -27 -66 -45 -93 -92 -138 -32
-31 -58 -61 -58 -67 0 -7 7 -4 14 5 7 10 16 15 19 12 10 -10 67 36 98 79 16
22 40 76 54 119 29 92 45 124 81 167 33 40 27 51 -8 13z"/>
<path d="M6437 8454 c-4 -4 -7 -14 -7 -23 0 -11 3 -12 11 -4 6 6 10 16 7 23
-2 6 -7 8 -11 4z"/>
<path d="M5271 7975 c0 -18 28 -61 29 -44 0 8 -7 24 -15 35 -8 10 -14 15 -14
9z"/>
<path d="M5260 7925 c0 -5 5 -17 10 -25 5 -8 10 -10 10 -5 0 6 -5 17 -10 25
-5 8 -10 11 -10 5z"/>
<path d="M5084 7468 c9 -45 48 -125 85 -176 l32 -44 31 47 c17 26 59 76 94
111 35 35 59 64 54 64 -6 0 -38 -20 -72 -45 -34 -25 -65 -45 -69 -45 -4 0 -11
-9 -14 -20 -10 -30 -43 -25 -51 8 -11 42 -44 103 -54 97 -5 -3 -11 4 -15 15
-11 33 -28 24 -21 -12z"/>
<path d="M5180 7376 c0 -15 18 -31 26 -23 7 7 -7 37 -17 37 -5 0 -9 -6 -9 -14z"/>
<path d="M5362 7280 c0 -14 2 -19 5 -12 2 6 2 18 0 25 -3 6 -5 1 -5 -13z"/>
<path d="M5326 7215 c-3 -9 -6 -24 -5 -33 0 -9 5 -4 10 12 9 32 6 48 -5 21z"/>
<path d="M6035 7160 c-3 -5 -1 -10 4 -10 6 0 11 5 11 10 0 6 -2 10 -4 10 -3 0
-8 -4 -11 -10z"/>
<path d="M6038 7123 c7 -3 16 -2 19 1 4 3 -2 6 -13 5 -11 0 -14 -3 -6 -6z"/>
<path d="M5400 6910 c0 -5 7 -10 15 -10 8 0 15 5 15 10 0 6 -7 10 -15 10 -8 0
-15 -4 -15 -10z"/>
<path d="M5312 6858 c6 -18 28 -21 28 -4 0 9 -7 16 -16 16 -9 0 -14 -5 -12
-12z"/>
<path d="M5400 6830 c0 -5 5 -10 10 -10 6 0 10 5 10 10 0 6 -4 10 -10 10 -5 0
-10 -4 -10 -10z"/>
<path d="M3570 7381 c-146 -56 -269 -112 -308 -140 l-29 -20 14 -122 c21 -195
52 -372 94 -537 48 -189 50 -193 73 -150 18 33 18 37 -17 223 -42 219 -87 486
-87 508 0 9 27 32 60 53 33 20 60 38 60 40 0 4 -94 -32 -121 -47 -13 -7 -19
-22 -20 -47 -1 -33 -2 -34 -9 -12 -17 52 -13 57 83 108 50 27 117 63 147 80
30 16 89 48 130 71 41 22 71 41 65 40 -5 0 -66 -22 -135 -48z"/>
<path d="M7095 7402 c6 -5 79 -48 163 -95 84 -48 177 -102 207 -121 53 -34 54
-36 48 -73 -10 -66 -23 -82 -17 -20 l6 57 -63 29 c-102 46 -119 46 -44 0 39
-23 72 -44 74 -45 2 -2 -6 -70 -19 -151 l-22 -148 28 -43 c15 -23 29 -41 30
-39 2 2 19 99 39 217 34 204 35 216 18 228 -28 20 -242 128 -301 151 -140 56
-156 62 -147 53z"/>
<path d="M7169 6631 l-13 -44 -18 39 c-18 39 -14 12 4 -36 10 -25 10 -25 28
15 l17 40 12 -38 c11 -33 31 -43 31 -16 0 6 -4 7 -10 4 -5 -3 -10 0 -10 7 -1
7 -7 27 -14 43 l-13 30 -14 -44z"/>
<path d="M7277 6663 c-4 -3 -7 -26 -7 -50 l0 -43 38 2 c36 1 36 1 5 5 -32 4
-32 5 -30 49 1 24 2 44 1 44 0 0 -4 -3 -7 -7z"/>
<path d="M6715 6620 c-10 -22 -15 -43 -12 -47 4 -3 7 -1 7 5 0 7 8 12 18 12
12 0 14 2 4 8 -13 9 -7 42 8 42 9 0 22 -29 16 -38 -2 -4 2 -13 10 -20 8 -7 14
-8 14 -3 0 15 -33 81 -40 81 -4 0 -15 -18 -25 -40z"/>
<path d="M6834 6648 c-8 -12 21 -38 43 -38 7 0 13 -7 13 -16 0 -12 -7 -15 -30
-12 -19 3 -27 1 -21 -5 14 -14 55 -4 59 16 3 12 -6 21 -27 28 -33 11 -40 24
-18 32 9 4 9 6 0 6 -6 1 -15 -4 -19 -11z"/>
<path d="M6952 6618 l-2 -48 33 1 c29 2 29 2 5 6 -24 4 -27 10 -31 46 l-4 42
-1 -47z"/>
<path d="M7019 6648 c8 -11 11 -28 7 -44 -5 -17 -3 -23 4 -19 16 10 12 51 -7
66 -16 13 -17 12 -4 -3z"/>
<path d="M7362 6618 l-2 -48 33 1 c29 2 29 2 5 6 -24 4 -27 10 -31 46 l-4 42
-1 -47z"/>
<path d="M7442 6618 l-2 -48 33 1 c29 2 29 2 5 6 -24 4 -27 10 -31 46 l-4 42
-1 -47z"/>
<path d="M4580 6584 c0 -14 4 -23 10 -19 6 3 10 15 10 26 0 10 -4 19 -10 19
-5 0 -10 -12 -10 -26z"/>
<path d="M4521 6545 c-16 -45 -14 -63 4 -39 14 19 14 19 15 -1 1 -16 4 -14 15
10 20 43 19 64 -4 62 -11 0 -23 -14 -30 -32z"/>
<path d="M4290 6549 c0 -8 7 -24 15 -35 11 -15 14 -16 15 -3 0 8 -7 24 -15 35
-11 15 -14 16 -15 3z"/>
<path d="M4444 6005 c-4 -8 -4 -24 -1 -35 3 -11 0 -26 -7 -33 -10 -11 -12 -25
-7 -52 4 -22 39 67 39 100 0 36 -14 47 -24 20z"/>
<path d="M4790 5528 c1 -59 2 -61 13 -34 14 31 11 96 -4 96 -5 0 -9 -28 -9
-62z"/>
<path d="M4810 5447 c0 -34 33 -69 43 -44 6 17 -3 38 -14 31 -5 -3 -9 6 -9 20
0 14 -4 26 -10 26 -5 0 -10 -15 -10 -33z"/>
<path d="M5155 6790 c-3 -5 -1 -10 4 -10 6 0 11 5 11 10 0 6 -2 10 -4 10 -3 0
-8 -4 -11 -10z"/>
<path d="M5663 5247 c-29 -5 -53 -13 -53 -17 0 -4 48 -12 108 -18 59 -6 140
-21 179 -33 64 -19 72 -25 69 -43 -3 -17 -31 -83 -54 -128 -8 -17 18 -7 47 18
46 39 79 121 61 154 -10 19 -91 54 -160 70 -55 12 -127 11 -197 -3z"/>
<path d="M5770 5091 c0 -5 8 -12 18 -14 9 -3 -15 -5 -55 -6 -39 0 -75 -5 -78
-11 -4 -6 23 -10 74 -10 47 0 81 4 81 10 0 6 7 10 15 10 23 0 18 17 -7 24 -33
8 -48 7 -48 -3z"/>
<path d="M5460 3941 l0 -71 -109 0 c-96 0 -110 2 -115 18 -3 9 -10 36 -16 60
l-11 42 -119 0 -120 0 0 -95 0 -95 125 0 125 0 0 -100 0 -100 -125 0 -125 0 0
-100 0 -101 122 3 122 3 7 30 c4 17 10 42 13 58 l6 27 110 0 110 0 0 -74 0
-75 38 13 37 13 3 296 2 296 -22 6 c-62 18 -58 22 -58 -54z"/>
<path d="M5840 3895 l0 -95 98 0 c130 0 142 8 142 95 0 87 -12 95 -142 95
l-98 0 0 -95z"/>
<path d="M5740 2644 l0 -74 -110 0 -110 0 -6 28 c-3 15 -9 41 -13 57 l-7 30
-122 3 -122 3 0 -90 0 -90 123 -3 122 -3 3 -102 3 -103 -126 0 -125 0 0 -100
0 -101 122 3 c114 3 123 4 126 23 2 11 8 37 13 58 l10 37 109 0 110 0 0 -70
c0 -75 4 -80 54 -60 l26 10 -2 296 -3 297 -37 13 -38 13 0 -75z"/>
<path d="M5186 1591 c-24 -26 -17 -62 15 -80 24 -13 29 -13 53 2 31 21 34 56
8 80 -25 22 -55 21 -76 -2z"/>
<path d="M5562 1571 c-10 -29 -10 -31 14 -31 27 0 29 5 10 39 l-13 24 -11 -32z"/>
</g>
</svg>
